<svg width="393" height="62" viewBox="0 0 393 62" fill="none" xmlns="http://www.w3.org/2000/svg">
<path d="M42.7666 26.4731C43.4085 26.4731 44.0173 26.5921 44.5928 26.8301C45.1683 27.0625 45.6774 27.4277 46.1201 27.9258C46.5684 28.4183 46.9198 29.0519 47.1743 29.8267C47.4289 30.5959 47.5562 31.5228 47.5562 32.6074V32.624C47.5562 33.9688 47.3625 35.1198 46.9751 36.0771C46.5877 37.0345 46.0316 37.7705 45.3066 38.2852C44.5872 38.7943 43.7267 39.0488 42.7251 39.0488C41.9891 39.0488 41.325 38.916 40.7329 38.6504C40.1463 38.3792 39.6593 38.0085 39.272 37.5381C38.8901 37.0622 38.6328 36.5199 38.5 35.9111L38.4834 35.8198H40.5835L40.6167 35.9028C40.7218 36.1795 40.8713 36.423 41.0649 36.6333C41.2642 36.8436 41.5021 37.0068 41.7788 37.123C42.061 37.2337 42.3765 37.2891 42.7251 37.2891C43.356 37.2891 43.8706 37.1037 44.269 36.7329C44.673 36.3566 44.9746 35.8558 45.1738 35.2305C45.3786 34.5996 45.4948 33.9023 45.5225 33.1387C45.528 33.0557 45.5308 32.9754 45.5308 32.8979C45.5308 32.8149 45.5308 32.7347 45.5308 32.6572L45.1572 30.6567C45.1572 30.203 45.0521 29.7907 44.8418 29.4199C44.6315 29.0492 44.3465 28.7559 43.9868 28.54C43.6326 28.3242 43.2314 28.2163 42.7832 28.2163C42.3516 28.2163 41.9559 28.3215 41.5962 28.5317C41.2365 28.742 40.9487 29.0298 40.7329 29.395C40.5171 29.7547 40.4092 30.1587 40.4092 30.6069V30.6235C40.4092 31.0884 40.5116 31.5007 40.7163 31.8604C40.9211 32.2145 41.2005 32.494 41.5547 32.6987C41.9089 32.9035 42.3128 33.0059 42.7666 33.0059C43.2204 33.0059 43.6271 32.9062 43.9868 32.707C44.3465 32.5078 44.6315 32.2311 44.8418 31.877C45.0521 31.5228 45.1572 31.1216 45.1572 30.6733V30.6567H45.6553V32.8647H45.3647C45.2209 33.1802 45.0078 33.4735 44.7256 33.7446C44.4434 34.0158 44.0947 34.2344 43.6797 34.4004C43.2702 34.5664 42.7887 34.6494 42.2354 34.6494C41.4717 34.6494 40.7965 34.4779 40.21 34.1348C39.6234 33.7917 39.1613 33.3213 38.8237 32.7236C38.4917 32.126 38.3257 31.4508 38.3257 30.6982V30.6816C38.3257 29.8682 38.5138 29.146 38.8901 28.5151C39.272 27.8787 39.7977 27.3807 40.4673 27.021C41.1424 26.6558 41.9089 26.4731 42.7666 26.4731ZM51.3247 37.1396C50.9484 37.1396 50.633 37.0151 50.3784 36.7661C50.1294 36.5116 50.0049 36.2017 50.0049 35.8364C50.0049 35.4657 50.1294 35.1558 50.3784 34.9067C50.633 34.6522 50.9484 34.5249 51.3247 34.5249C51.7065 34.5249 52.022 34.6522 52.271 34.9067C52.52 35.1558 52.6445 35.4657 52.6445 35.8364C52.6445 36.2017 52.52 36.5116 52.271 36.7661C52.022 37.0151 51.7065 37.1396 51.3247 37.1396ZM51.3247 30.9805C50.9484 30.9805 50.633 30.856 50.3784 30.6069C50.1294 30.3524 50.0049 30.0425 50.0049 29.6772C50.0049 29.3065 50.1294 28.9966 50.3784 28.7476C50.633 28.493 50.9484 28.3657 51.3247 28.3657C51.7065 28.3657 52.022 28.493 52.271 28.7476C52.52 28.9966 52.6445 29.3065 52.6445 29.6772C52.6445 30.0425 52.52 30.3524 52.271 30.6069C52.022 30.856 51.7065 30.9805 51.3247 30.9805ZM60.9038 38.75V36.4507H55.0435V34.6992C55.3589 34.1624 55.6743 33.6229 55.9897 33.0806C56.3107 32.5382 56.6344 31.9987 56.9609 31.4619C57.293 30.9196 57.6222 30.3856 57.9487 29.8599C58.2808 29.3286 58.61 28.8057 58.9365 28.291C59.2686 27.7708 59.6006 27.2645 59.9326 26.772H62.9458V34.6826H64.5645V36.4507H62.9458V38.75H60.9038ZM57.0356 34.7324H60.937V28.4819H60.8125C60.569 28.8582 60.3172 29.2456 60.0571 29.644C59.8026 30.0425 59.5452 30.4492 59.2852 30.8643C59.0251 31.2793 58.7677 31.6971 58.5132 32.1177C58.2586 32.5327 58.0068 32.9505 57.7578 33.3711C57.5088 33.7861 57.2681 34.1984 57.0356 34.6079V34.7324ZM69.52 38.75V28.8804H69.3706L66.3906 30.9805V28.9717L69.52 26.772H71.6533V38.75H69.52Z" fill="#F8FAFC"/>
<path fill-rule="evenodd" clip-rule="evenodd" d="M308.365 27.533C308.365 26.9 307.887 26.3868 307.298 26.3868H306.232C305.643 26.3868 305.165 26.9 305.165 27.533V37.467C305.165 38.1 305.643 38.6132 306.232 38.6132H307.298C307.887 38.6132 308.365 38.1 308.365 37.467V27.533ZM300.931 28.8321H301.998C302.587 28.8321 303.064 29.3576 303.064 30.0058V37.4395C303.064 38.0877 302.587 38.6132 301.998 38.6132H300.931C300.342 38.6132 299.864 38.0877 299.864 37.4395V30.0058C299.864 29.3576 300.342 28.8321 300.931 28.8321ZM296.599 31.4811H295.532C294.943 31.4811 294.466 32.0133 294.466 32.6698V37.4245C294.466 38.081 294.943 38.6132 295.532 38.6132H296.599C297.188 38.6132 297.666 38.081 297.666 37.4245V32.6698C297.666 32.0133 297.188 31.4811 296.599 31.4811ZM291.298 33.9264H290.232C289.643 33.9264 289.165 34.451 289.165 35.0981V37.4415C289.165 38.0886 289.643 38.6132 290.232 38.6132H291.298C291.887 38.6132 292.365 38.0886 292.365 37.4415V35.0981C292.365 34.451 291.887 33.9264 291.298 33.9264Z" fill="#F8FAFC"/>
<path fill-rule="evenodd" clip-rule="evenodd" d="M323.937 28.8021C326.424 28.8022 328.816 29.7243 330.618 31.3778C330.754 31.5054 330.971 31.5038 331.105 31.3742L332.402 30.1107C332.47 30.045 332.507 29.9559 332.507 29.8632C332.506 29.7705 332.468 29.6819 332.399 29.6169C327.668 25.2422 320.204 25.2422 315.473 29.6169C315.405 29.6818 315.366 29.7704 315.365 29.8631C315.365 29.9558 315.402 30.0449 315.47 30.1107L316.768 31.3742C316.901 31.504 317.119 31.5056 317.254 31.3778C319.057 29.7242 321.449 28.8021 323.937 28.8021ZM323.933 33.0224C325.291 33.0223 326.599 33.5341 327.606 34.4582C327.742 34.5893 327.956 34.5865 328.089 34.4518L329.376 33.1325C329.444 33.0633 329.481 32.9694 329.48 32.8718C329.479 32.7743 329.44 32.6812 329.371 32.6134C326.307 29.7226 321.562 29.7226 318.498 32.6134C318.429 32.6812 318.39 32.7743 318.389 32.8719C318.388 32.9695 318.426 33.0634 318.493 33.1325L319.78 34.4518C319.913 34.5865 320.127 34.5893 320.263 34.4582C321.269 33.5347 322.577 33.023 323.933 33.0224ZM326.458 35.816C326.46 35.9213 326.422 36.0229 326.355 36.0967L324.179 38.5514C324.115 38.6236 324.028 38.6642 323.937 38.6642C323.846 38.6642 323.759 38.6236 323.695 38.5514L321.518 36.0967C321.451 36.0228 321.414 35.9212 321.416 35.8159C321.418 35.7105 321.459 35.6108 321.529 35.5401C322.919 34.2262 324.955 34.2262 326.345 35.5401C326.415 35.6108 326.456 35.7106 326.458 35.816Z" fill="#F8FAFC"/>
<rect opacity="0.35" x="340.007" y="26.5" width="24" height="12" rx="3.8" stroke="#F8FAFC"/>
<path opacity="0.4" d="M365.507 30.5V34.5755C366.312 34.2303 366.835 33.4273 366.835 32.5377C366.835 31.6481 366.312 30.8452 365.507 30.5Z" fill="#F8FAFC"/>
<rect x="341.507" y="28" width="21" height="9" rx="2.5" fill="#F8FAFC"/>
</svg>
